<svg xmlns="http://www.w3.org/2000/svg" xmlns:xlink="http://www.w3.org/1999/xlink" width="90" height="85" viewBox="0 0 90 85"><defs><clipPath id="a"><rect width="90" height="85" transform="translate(137 195)" fill="#fff" stroke="#fff" stroke-width="1"/></clipPath></defs><g transform="translate(-137 -195)" clip-path="url(#a)"><g transform="translate(136.248 192.319)"><path d="M45.852,19.306A15.8,15.8,0,0,1,58.1,24.669a16.591,16.591,0,0,1,4.38,11.53,16.481,16.481,0,0,1-4.648,11.709,15.846,15.846,0,0,1-11.977,5.005,15.905,15.905,0,0,1-12.066-5.005A16.481,16.481,0,0,1,29.138,36.2a16.437,16.437,0,0,1,4.38-11.53A15.853,15.853,0,0,1,45.852,19.306Z" fill="#bcbec0"/><path d="M45.762,5.095A31.355,31.355,0,0,1,77.135,36.467a30.891,30.891,0,0,1-5.72,17.965l-1.162,1.7h0c-6.525,9.206-19.664,23.507-24.579,28.78-4.737-5.273-17.965-19.574-24.4-28.78h0l-1.162-1.7a30.8,30.8,0,0,1-5.631-19.038,31.345,31.345,0,0,1,29.853-30.3h1.43m0-2.413H44.243a33.845,33.845,0,0,0-26.1,53.181h0C24.49,65.515,40.221,82.408,44.6,87.145a1.573,1.573,0,0,0,1.162.536,1.441,1.441,0,0,0,1.162-.536c4.469-4.737,20.2-21.63,26.456-31.283h0A33.834,33.834,0,0,0,45.762,2.681Z" fill="#a7a9ac"/><path d="M68.018,60.242l-5.81-4.648a1.736,1.736,0,0,0-2.5.268c-5.9,6.793-11.441,12.96-13.318,15.016a.864.864,0,0,1-1.251,0c-1.251-1.341-4.38-4.648-8.044-8.759A1.927,1.927,0,0,0,34.5,61.94l-5.542,4.916a1.814,1.814,0,0,0-.179,2.5c6.346,7.419,13.139,14.748,15.82,17.608a1.527,1.527,0,0,0,2.324,0C50.41,83.3,60.868,71.951,68.286,62.655A1.582,1.582,0,0,0,68.018,60.242Z" fill="#3dae2b"/></g></g></svg>