<svg xmlns="http://www.w3.org/2000/svg" width="21.369" height="30.013" viewBox="0 0 21.369 30.013"><path d="M5.491,30.013h6.451a4.936,4.936,0,0,0,4.347-2.738l5.58-10.718-.315-.258-.017-.015a2.4,2.4,0,0,0-1.8-.646,2.451,2.451,0,0,0-1.729.915l-1.61,1.96a.461.461,0,0,1-.817-.292L15.571,4.738a1.6,1.6,0,0,0-1.526-1.666,1.6,1.6,0,0,0-1.525,1.6c0,1.362,0,2.844,0,4.255,0,3.191,0,5.944,0,6.212a.456.456,0,0,1-.459.458h0a.457.457,0,0,1-.461-.455c0-.269,0-3.021,0-6.213,0-1.377,0-2.823,0-4.158,0-.011,0-.021,0-.032,0-.026,0-.051,0-.078v-3A1.6,1.6,0,0,0,10.073,0h-.047A1.6,1.6,0,0,0,8.487,1.655V15.146a.461.461,0,0,1-.921,0V3.4A1.592,1.592,0,0,0,6.054,1.732,1.592,1.592,0,0,0,4.537,3.4V15.146a.461.461,0,0,1-.921,0V8.222a1.59,1.59,0,0,0-1.541-1.64H2.031A1.588,1.588,0,0,0,.505,8.227C.5,12.011.5,18.682.507,24.654A5.189,5.189,0,0,0,5.491,30.013Zm0,0" transform="translate(-0.5)" fill="#3db12b"/></svg>