<svg xmlns="http://www.w3.org/2000/svg" xmlns:xlink="http://www.w3.org/1999/xlink" width="17.017" height="17.017" viewBox="0 0 17.017 17.017">
  <defs>
    <clipPath id="clip-path">
      <rect id="Rectangle_411" data-name="Rectangle 411" width="17.017" height="17.017" fill="#fff" stroke="#707070" stroke-width="1"/>
    </clipPath>
  </defs>
  <g id="status-3" clip-path="url(#clip-path)">
    <g id="return" transform="translate(0.519 0.487)">
      <path id="Path_2190" data-name="Path 2190" d="M7.586,12.019a.256.256,0,0,0,.255-.254v-.448a.255.255,0,0,0-.509,0v.448A.256.256,0,0,0,7.586,12.019Z" transform="translate(1.3 1.448)" fill="#40495c" stroke="#40495c" stroke-width="0.2"/>
      <path id="Path_2191" data-name="Path 2191" d="M11.652,12.019a.256.256,0,0,0,.255-.254v-.448a.255.255,0,0,0-.509,0v.448A.256.256,0,0,0,11.652,12.019Z" transform="translate(1.333 1.448)" fill="#40495c" stroke="#40495c" stroke-width="0.2"/>
      <path id="Path_2192" data-name="Path 2192" d="M9.727,12.184a1.054,1.054,0,0,0,.8-.356.255.255,0,0,0-.384-.336.567.567,0,0,1-.835,0,.255.255,0,0,0-.384.336A1.064,1.064,0,0,0,9.727,12.184Z" transform="translate(1.209 1.521)" fill="#40495c" stroke="#40495c" stroke-width="0.2"/>
      <path id="Path_2193" data-name="Path 2193" d="M3.685,3.215S5.5,4.8,5.5,4.8a.494.494,0,0,0,.811-.37V4.121a3.542,3.542,0,0,1,1.446.4,2.591,2.591,0,0,1,1.209,1.47.49.49,0,0,0,.472.339c.051,0,.1,0,.156-.007a.5.5,0,0,0,.472-.519v0a3.921,3.921,0,0,0-.343-1.4,4.538,4.538,0,0,0-1.935-2.03,6.757,6.757,0,0,0-1.477-.594V1.256A.5.5,0,0,0,5.5.886s-1.82,1.585-1.82,1.589A.5.5,0,0,0,3.685,3.215Zm.265-.435S5.77,1.2,5.77,1.192a.087.087,0,0,1,.143.064v.679a.2.2,0,0,0,.156.2c.037.01.081.02.122.034a6.361,6.361,0,0,1,1.4.553A4.159,4.159,0,0,1,9.358,4.57a3.5,3.5,0,0,1,.306,1.253v0a.091.091,0,0,1-.088.1l-.132.007h0a.093.093,0,0,1-.088-.061,2.99,2.99,0,0,0-1.4-1.7,4.019,4.019,0,0,0-1.82-.455.207.207,0,0,0-.224.2v.523a.087.087,0,0,1-.143.064L3.947,2.91A.086.086,0,0,1,3.95,2.781Z" transform="translate(0.057 -0.77)" fill="#40495c" stroke="#40495c" stroke-miterlimit="10" stroke-width="0.55"/>
      <path id="Path_2194" data-name="Path 2194" d="M.977,10.576h.565v3.68a.956.956,0,0,0,.955.955H14.044A.956.956,0,0,0,15,14.256v-3.68h.565a.7.7,0,0,0,.646-.955L14.979,6.539a.234.234,0,0,0-.218-.146H13.524a.234.234,0,1,0,0,.468H14.6S15.772,9.79,15.775,9.8a.229.229,0,0,1-.211.312H8.23a.227.227,0,0,1-.211-.143l-1.237-3.1h5.807a.234.234,0,1,0,0-.468H1.776a.237.237,0,0,0-.218.146S.331,9.615.328,9.621A.706.706,0,0,0,.977,10.576Zm5.456,2.475a.233.233,0,0,0,.234-.234V7.841l.916,2.293a.694.694,0,0,0,.646.438h6.3v3.683a.488.488,0,0,1-.484.487H6.671v-.991a.234.234,0,1,0-.468,0v.991H2.5a.486.486,0,0,1-.484-.487v-3.68H4.644a.7.7,0,0,0,.646-.438l.916-2.293V12.82A.223.223,0,0,0,6.434,13.051ZM.763,9.793,1.936,6.857H6.09l-1.237,3.1a.229.229,0,0,1-.211.143H.981A.232.232,0,0,1,.763,9.793Z" transform="translate(-0.28 0.641)" fill="#40495c" stroke="#40495c" stroke-miterlimit="10" stroke-width="0.55"/>
    </g>
  </g>
</svg>
