<svg xmlns="http://www.w3.org/2000/svg" xmlns:xlink="http://www.w3.org/1999/xlink" width="17.017" height="17.017" viewBox="0 0 17.017 17.017">
  <defs>
    <clipPath id="clip-path">
      <rect id="Rectangle_399" data-name="Rectangle 399" width="17.017" height="17.017" transform="translate(0)" fill="#fff" stroke="#707070" stroke-width="1"/>
    </clipPath>
  </defs>
  <g id="status-7" clip-path="url(#clip-path)">
    <g id="user" transform="translate(1.794)">
      <path id="Path_2166" data-name="Path 2166" d="M6.937,8.2A3.652,3.652,0,0,0,9.678,7a4.083,4.083,0,0,0,1.136-2.9A4.084,4.084,0,0,0,9.678,1.2,3.729,3.729,0,0,0,4.2,1.2,4.083,4.083,0,0,0,3.06,4.1,4.083,4.083,0,0,0,4.2,7,3.653,3.653,0,0,0,6.937,8.2ZM4.863,1.906A2.728,2.728,0,0,1,6.937,1a2.729,2.729,0,0,1,2.074.909A3.05,3.05,0,0,1,9.87,4.1a3.05,3.05,0,0,1-.859,2.193A2.729,2.729,0,0,1,6.937,7.2a2.729,2.729,0,0,1-2.074-.909A3.05,3.05,0,0,1,4,4.1,3.05,3.05,0,0,1,4.863,1.906Zm0,0" transform="translate(-0.324)" fill="#40495c" stroke="#40495c" stroke-width="0.2"/>
      <path id="Path_2167" data-name="Path 2167" d="M13.4,13.56a10.675,10.675,0,0,0-.13-1.075,8.875,8.875,0,0,0-.25-1.081A5.5,5.5,0,0,0,12.6,10.4a3.784,3.784,0,0,0-.634-.873,2.779,2.779,0,0,0-.911-.6,3,3,0,0,0-1.162-.222,1.145,1.145,0,0,0-.63.283c-.189.13-.41.281-.656.447a3.663,3.663,0,0,1-.849.4,3.129,3.129,0,0,1-2.078,0,3.652,3.652,0,0,1-.849-.4c-.244-.165-.465-.316-.657-.448a1.144,1.144,0,0,0-.63-.283,2.993,2.993,0,0,0-1.162.223,2.776,2.776,0,0,0-.911.6,3.785,3.785,0,0,0-.634.873A5.511,5.511,0,0,0,.413,11.4a8.9,8.9,0,0,0-.25,1.081,10.6,10.6,0,0,0-.13,1.076c-.021.325-.032.663-.032,1A2.913,2.913,0,0,0,.794,16.7a2.769,2.769,0,0,0,2.045.789h7.75a2.77,2.77,0,0,0,2.045-.789,2.912,2.912,0,0,0,.794-2.138C13.429,14.222,13.418,13.884,13.4,13.56Zm-1.412,2.421a1.862,1.862,0,0,1-1.4.514H2.839a1.862,1.862,0,0,1-1.4-.514,1.9,1.9,0,0,1-.5-1.415c0-.319.01-.634.03-.936a9.563,9.563,0,0,1,.118-.968,7.847,7.847,0,0,1,.22-.953,4.486,4.486,0,0,1,.342-.82,2.806,2.806,0,0,1,.466-.645,1.842,1.842,0,0,1,.606-.4,2.068,2.068,0,0,1,.743-.152c.033.019.092.054.187.12.194.134.417.286.664.453a4.554,4.554,0,0,0,1.066.5,4.023,4.023,0,0,0,2.658,0,4.559,4.559,0,0,0,1.067-.5c.253-.171.47-.319.664-.453.1-.066.154-.1.187-.12a2.069,2.069,0,0,1,.743.152,1.845,1.845,0,0,1,.606.4,2.8,2.8,0,0,1,.466.646,4.471,4.471,0,0,1,.342.82,7.829,7.829,0,0,1,.22.953,9.643,9.643,0,0,1,.118.969h0c.02.3.03.616.03.936A1.9,1.9,0,0,1,11.984,15.981Zm0,0" transform="translate(0 -0.475)" fill="#40495c" stroke="#40495c" stroke-width="0.2"/>
    </g>
  </g>
</svg>
