<svg xmlns="http://www.w3.org/2000/svg" xmlns:xlink="http://www.w3.org/1999/xlink" width="17.017" height="17.017" viewBox="0 0 17.017 17.017">
  <defs>
    <clipPath id="clip-path">
      <rect id="Rectangle_400" data-name="Rectangle 400" width="17.017" height="17.017" transform="translate(0)" fill="#fff" stroke="#707070" stroke-width="1"/>
    </clipPath>
  </defs>
  <g id="status-6" clip-path="url(#clip-path)">
    <path id="home" d="M16.061,7h0L9.334.434a1.544,1.544,0,0,0-2.147,0L.465,7l-.007.007a1.46,1.46,0,0,0,0,2.093,1.527,1.527,0,0,0,1.007.432l.047,0h.268v4.834A1.758,1.758,0,0,0,3.56,16.1H6.191a.478.478,0,0,0,.483-.472v-3.79a.8.8,0,0,1,.811-.792H9.037a.8.8,0,0,1,.811.792v3.79a.478.478,0,0,0,.483.472h2.631a1.758,1.758,0,0,0,1.777-1.735V9.534h.249A1.527,1.527,0,0,0,16.061,9.1,1.46,1.46,0,0,0,16.061,7Zm-.684,1.428a.555.555,0,0,1-.39.158h-.732a.477.477,0,0,0-.483.472v5.305a.8.8,0,0,1-.811.791H10.814V11.841a1.758,1.758,0,0,0-1.777-1.735H7.485a1.758,1.758,0,0,0-1.777,1.735v3.318H3.56a.8.8,0,0,1-.811-.791V9.062a.477.477,0,0,0-.483-.472H1.525a.554.554,0,0,1-.38-.157.531.531,0,0,1,0-.762h0L7.871,1.1a.561.561,0,0,1,.78,0l6.724,6.566,0,0A.531.531,0,0,1,15.377,8.432Zm0,0" transform="translate(0.816 0.457)" fill="#40495c" stroke="#40495c" stroke-width="0.3"/>
  </g>
</svg>
